<?xml version="1.0" encoding="UTF-8"?>
<!DOCTYPE svg PUBLIC "-//W3C//DTD SVG 1.1//EN" "http://www.w3.org/Graphics/SVG/1.1/DTD/svg11.dtd">
<!-- Creator: CorelDRAW 2020 (64-Bit) -->
<svg xmlns="http://www.w3.org/2000/svg" xml:space="preserve" width="210mm" height="297mm" version="1.1" style="shape-rendering:geometricPrecision; text-rendering:geometricPrecision; image-rendering:optimizeQuality; fill-rule:evenodd; clip-rule:evenodd"
viewBox="0 0 21000 29700"
 xmlns:xlink="http://www.w3.org/1999/xlink"
 xmlns:xodm="http://www.corel.com/coreldraw/odm/2003">
 <defs>
  <style type="text/css">
   <![CDATA[
    .fil0 {fill:#1C274C;fill-rule:nonzero}
   ]]>
  </style>
 </defs>
 <g id="Слой_x0020_1">
  <metadata id="CorelCorpID_0Corel-Layer"/>
  <path id="eye-closed-svgrepo-com.svg" class="fil0" d="M9224.68 19165.19c0.43,-342.57 -277.01,-620.66 -619.64,-621.05 -342.63,-0.39 -620.72,277.04 -621.11,619.68l1240.75 1.37zm-1243.21 2141.45c-0.43,342.58 277.01,620.66 619.66,621.05 342.63,0.39 620.71,-277.04 621.1,-619.68l-1240.76 -1.37zm2.46 -2142.82l-2.46 2142.82 1240.76 1.37 2.45 -2142.82 -1240.75 -1.37z"/>
  <path id="eye-closed-svgrepo-com.svg_0" class="fil0" d="M6389.34 18893.02c114.2,-322.98 -55.11,-677.43 -378.16,-791.62 -323.04,-114.18 -677.5,55.12 -791.69,378.18l1169.85 413.44zm-1883.97 1606.89c-114.2,322.97 55.11,677.43 378.17,791.62 323.05,114.18 677.49,-55.12 791.68,-378.18l-1169.85 -413.44zm714.12 -2020.33l-714.12 2020.33 1169.85 413.44 714.12 -2020.33 -1169.85 -413.44z"/>
  <path id="eye-closed-svgrepo-com.svg_1" class="fil0" d="M3993.96 17820.76c207.78,-272.37 155.35,-661.68 -117.1,-869.44 -272.45,-207.77 -661.75,-155.36 -869.53,117.1l986.63 752.34zm-2286.03 951.55c-207.77,272.37 -155.34,661.68 117.12,869.46 272.45,207.76 661.73,155.34 869.51,-117.11l-986.63 -752.35zm1299.4 -1703.89l-1299.4 1703.89 986.63 752.35 1299.4 -1703.9 -986.63 -752.34z"/>
  <path id="eye-closed-svgrepo-com.svg_2" class="fil0" d="M11910.74 18513.99c-110.1,-324.4 -462.43,-498.11 -786.87,-387.95 -324.43,110.17 -498.16,462.47 -387.99,786.92l1174.86 -398.97zm-485.9 2428.02c110.1,324.4 462.42,498.11 786.87,387.95 324.44,-110.17 498.15,-462.47 387.98,-786.92l-1174.85 398.97zm-688.96 -2029.05l688.96 2029.05 1174.85 -398.97 -688.95 -2029.05 -1174.86 398.97z"/>
  <path id="eye-closed-svgrepo-com.svg_3" class="fil0" d="M14442.12 16846.94c-217.46,-264.7 -608.42,-302.95 -873.13,-85.4 -264.71,217.54 -302.97,608.48 -85.42,873.2l958.55 -787.8zm401.94 2443.32c217.47,264.7 608.42,302.95 873.15,85.4 264.7,-217.54 302.96,-608.48 85.41,-873.2l-958.56 787.8zm-1360.49 -1655.52l1360.49 1655.52 958.56 -787.8 -1360.5 -1655.52 -958.55 787.8z"/>
 </g>
</svg>
