<?xml version="1.0" encoding="UTF-8"?>
<!DOCTYPE svg PUBLIC "-//W3C//DTD SVG 1.1//EN" "http://www.w3.org/Graphics/SVG/1.1/DTD/svg11.dtd">
<!-- Creator: CorelDRAW 2020 (64-Bit) -->
<svg xmlns="http://www.w3.org/2000/svg" xml:space="preserve" width="210mm" height="297mm" version="1.1" style="shape-rendering:geometricPrecision; text-rendering:geometricPrecision; image-rendering:optimizeQuality; fill-rule:evenodd; clip-rule:evenodd"
viewBox="0 0 21000 29700"
 xmlns:xlink="http://www.w3.org/1999/xlink"
 xmlns:xodm="http://www.corel.com/coreldraw/odm/2003">
 <defs>
  <style type="text/css">
   <![CDATA[
    .fil0 {fill:#1C274C;fill-rule:nonzero}
   ]]>
  </style>
 </defs>
 <g id="Слой_x0020_1">
  <metadata id="CorelCorpID_0Corel-Layer"/>
  <path id="eye-closed-svgrepo-com.svg" class="fil0" d="M11811.71 23420.24c8.35,-365.15 -281,-667.96 -646.21,-676.26 -365.22,-8.3 -668.03,281.03 -676.33,646.26l1322.54 30zm-1374.45 2254.07c-8.35,365.15 281,667.96 646.23,676.26 365.21,8.29 668.01,-281.03 676.31,-646.26l-1322.54 -30zm51.91 -2284.07l-51.91 2284.07 1322.54 30 51.91 -2284.07 -1322.54 -30z"/>
  <path id="eye-closed-svgrepo-com.svg_0" class="fil0" d="M7767.6 22704.9c189.8,-312.06 90.63,-718.97 -221.51,-908.76 -312.14,-189.79 -719.04,-90.64 -908.84,221.51l1130.35 687.25zm-2317.35 1264.86c-189.8,312.05 -90.63,718.97 221.52,908.77 312.14,189.79 719.03,90.63 908.83,-221.52l-1130.35 -687.25zm1187 -1952.11l-1187 1952.11 1130.35 687.25 1187 -1952.11 -1130.35 -687.25z"/>
  <path id="eye-closed-svgrepo-com.svg_1" class="fil0" d="M4622.96 20063.35c320.4,-175.35 437.97,-577.34 262.55,-897.77 -175.42,-320.43 -577.39,-438.01 -897.84,-262.59l635.29 1160.36zm-2639.31 -63.28c-320.4,175.35 -437.97,577.33 -262.54,897.78 175.42,320.43 577.38,438 897.83,262.57l-635.29 -1160.35zm2004.02 -1097.08l-2004.02 1097.08 635.29 1160.35 2004.02 -1097.07 -635.29 -1160.36z"/>
  <path id="eye-closed-svgrepo-com.svg_2" class="fil0" d="M15671.69 22017.68c-175.35,-320.4 -577.34,-437.97 -897.77,-262.55 -320.43,175.42 -438.01,577.39 -262.59,897.84l1160.36 -635.29zm-63.28 2639.31c175.35,320.4 577.33,437.97 897.78,262.54 320.43,-175.42 438,-577.38 262.57,-897.83l-1160.35 635.29zm-1097.08 -2004.02l1097.08 2004.02 1160.35 -635.29 -1097.07 -2004.02 -1160.36 635.29z"/>
  <path id="eye-closed-svgrepo-com.svg_3" class="fil0" d="M18313.24 18873.04c-312.06,-189.8 -718.97,-90.63 -908.76,221.51 -189.79,312.14 -90.64,719.04 221.51,908.84l687.25 -1130.35zm1264.86 2317.35c312.05,189.8 718.97,90.63 908.77,-221.52 189.79,-312.14 90.63,-719.03 -221.52,-908.83l-687.25 1130.35zm-1952.11 -1187l1952.11 1187 687.25 -1130.35 -1952.11 -1187 -687.25 1130.35z"/>
 </g>
</svg>
